  0
SECTION
  2
HEADER
  9
$ACADVER
  1
AC1014
  9
$HANDSEED
  5
FFFF
  9
$MEASUREMENT
 70
     1
  0
ENDSEC
  0
SECTION
  2
TABLES
  0
TABLE
  2
VPORT
  5
8
330
0
100
AcDbSymbolTable
 70
     4
  0
VPORT
  5
2E
330
8
100
AcDbSymbolTableRecord
100
AcDbViewportTableRecord
  2
*ACTIVE
 70
     0
 10
0.0
 20
0.0
 11
1.0
 21
1.0
 12
210.0
 22
148.5
 13
0.0
 23
0.0
 14
10.0
 24
10.0
 15
10.0
 25
10.0
 16
0.0
 26
0.0
 36
1.0
 17
0.0
 27
0.0
 37
0.0
 40
341.0
 41
1.24
 42
50.0
 43
0.0
 44
0.0
 50
0.0
 51
0.0
 71
     0
 72
   100
 73
     1
 74
     3
 75
     0
 76
     0
 77
     0
 78
     0
  0
ENDTAB
  0
TABLE
  2
LTYPE
  5
5
330
0
100
AcDbSymbolTable
 70
     1
  0
LTYPE
  5
14
330
5
100
AcDbSymbolTableRecord
100
AcDbLinetypeTableRecord
  2
BYBLOCK
 70
     0
  3

 72
    65
 73
     0
 40
0.0
  0
LTYPE
  5
15
330
5
100
AcDbSymbolTableRecord
100
AcDbLinetypeTableRecord
  2
BYLAYER
 70
     0
  3

 72
    65
 73
     0
 40
0.0
  0
LTYPE
  5
16
330
5
100
AcDbSymbolTableRecord
100
AcDbLinetypeTableRecord
  2
CONTINUOUS
 70
     0
  3
Solid line
 72
    65
 73
     0
 40
0.0
  0
ENDTAB
  0
TABLE
  2
LAYER
  5
2
100
AcDbSymbolTable
 70
2
  0
LAYER
  5
50
100
AcDbSymbolTableRecord
100
AcDbLayerTableRecord
  2
0
 70
0
  6
CONTINUOUS
  0
LAYER
  5
51
100
AcDbSymbolTableRecord
100
AcDbLayerTableRecord
  2
Layer_1
 70
0
  6
CONTINUOUS
  0
ENDTAB
  0
TABLE
  2
STYLE
  5
3
330
0
100
AcDbSymbolTable
 70
     1
  0
STYLE
  5
11
330
3
100
AcDbSymbolTableRecord
100
AcDbTextStyleTableRecord
  2
STANDARD
 70
     0
 40
0.0
 41
1.0
 50
0.0
 71
     0
 42
2.5
  3
txt
  4

  0
ENDTAB
  0
TABLE
  2
VIEW
  5
6
330
0
100
AcDbSymbolTable
 70
     0
  0
ENDTAB
  0
TABLE
  2
UCS
  5
7
330
0
100
AcDbSymbolTable
 70
     0
  0
ENDTAB
  0
TABLE
  2
APPID
  5
9
330
0
100
AcDbSymbolTable
 70
     2
  0
APPID
  5
12
330
9
100
AcDbSymbolTableRecord
100
AcDbRegAppTableRecord
  2
ACAD
 70
     0
  0
ENDTAB
  0
TABLE
  2
DIMSTYLE
  5
A
330
0
100
AcDbSymbolTable
 70
     1
  0
DIMSTYLE
105
27
330
A
100
AcDbSymbolTableRecord
100
AcDbDimStyleTableRecord
  2
ISO-25
 70
     0
  3

  4

  5

  6

  7

 40
1.0
 41
2.5
 42
0.625
 43
3.75
 44
1.25
 45
0.0
 46
0.0
 47
0.0
 48
0.0
140
2.5
141
2.5
142
0.0
143
0.03937007874016
144
1.0
145
0.0
146
1.0
147
0.625
 71
     0
 72
     0
 73
     0
 74
     0
 75
     0
 76
     0
 77
     1
 78
     8
170
     0
171
     3
172
     1
173
     0
174
     0
175
     0
176
     0
177
     0
178
     0
270
     2
271
     2
272
     2
273
     2
274
     3
340
11
275
     0
280
     0
281
     0
282
     0
283
     0
284
     8
285
     0
286
     0
287
     3
288
     0
  0
ENDTAB
  0
TABLE
  2
BLOCK_RECORD
  5
1
330
0
100
AcDbSymbolTable
 70
     1
  0
BLOCK_RECORD
  5
1F
330
1
100
AcDbSymbolTableRecord
100
AcDbBlockTableRecord
  2
*MODEL_SPACE
  0
BLOCK_RECORD
  5
1B
330
1
100
AcDbSymbolTableRecord
100
AcDbBlockTableRecord
  2
*PAPER_SPACE
  0
ENDTAB
  0
ENDSEC
  0
SECTION
  2
BLOCKS
  0
BLOCK
  5
20
330
1F
100
AcDbEntity
  8
0
100
AcDbBlockBegin
  2
*MODEL_SPACE
 70
     0
 10
0.0
 20
0.0
 30
0.0
  3
*MODEL_SPACE
  1

  0
ENDBLK
  5
21
330
1F
100
AcDbEntity
  8
0
100
AcDbBlockEnd
  0
BLOCK
  5
1C
330
1B
100
AcDbEntity
 67
     1
  8
0
100
AcDbBlockBegin
  2
*PAPER_SPACE
  1

  0
ENDBLK
  5
1D
330
1B
100
AcDbEntity
 67
     1
  8
0
100
AcDbBlockEnd
  0
ENDSEC
  0
SECTION
  2
ENTITIES
  0
LWPOLYLINE
  5
100
100
AcDbEntity
  8
Layer_1
 62
7
100
AcDbPolyline
 90
65
 70
0
 10
138.006528
 20
-4.401276
 30
0.0
 10
138.048128
 20
1.654964
 30
0.0
 10
138.089728
 20
7.711124
 30
0.0
 10
138.131328
 20
13.767364
 30
0.0
 10
138.172928
 20
19.823524
 30
0.0
 10
138.214528
 20
25.879684
 30
0.0
 10
138.256128
 20
31.935924
 30
0.0
 10
138.297728
 20
37.992084
 30
0.0
 10
138.339328
 20
44.048316
 30
0.0
 10
136.196448
 20
45.905460
 30
0.0
 10
134.053648
 20
47.762604
 30
0.0
 10
131.910768
 20
49.619748
 30
0.0
 10
129.767888
 20
51.476892
 30
0.0
 10
127.625008
 20
53.334028
 30
0.0
 10
125.482208
 20
55.191172
 30
0.0
 10
123.339328
 20
57.048316
 30
0.0
 10
121.196448
 20
58.905460
 30
0.0
 10
121.160448
 20
60.584036
 30
0.0
 10
121.124448
 20
62.262604
 30
0.0
 10
121.088448
 20
63.941180
 30
0.0
 10
121.052448
 20
65.619748
 30
0.0
 10
121.016448
 20
67.298324
 30
0.0
 10
120.980448
 20
68.976892
 30
0.0
 10
120.944448
 20
70.655468
 30
0.0
 10
120.908448
 20
72.334036
 30
0.0
 10
122.944208
 20
72.369716
 30
0.0
 10
124.979888
 20
72.405396
 30
0.0
 10
127.015648
 20
72.441076
 30
0.0
 10
129.051328
 20
72.476756
 30
0.0
 10
131.087008
 20
72.512436
 30
0.0
 10
133.122768
 20
72.548116
 30
0.0
 10
135.158448
 20
72.583796
 30
0.0
 10
137.194208
 20
72.619476
 30
0.0
 10
137.194208
 20
94.190908
 30
0.0
 10
137.194208
 20
115.762332
 30
0.0
 10
137.194208
 20
137.333764
 30
0.0
 10
137.194208
 20
158.905188
 30
0.0
 10
137.194208
 20
180.476620
 30
0.0
 10
137.194208
 20
202.048044
 30
0.0
 10
137.194208
 20
223.619476
 30
0.0
 10
137.194208
 20
245.190876
 30
0.0
 10
135.974288
 20
252.119276
 30
0.0
 10
131.787248
 20
270.373836
 30
0.0
 10
123.841888
 20
296.158876
 30
0.0
 10
111.347088
 20
325.678756
 30
0.0
 10
93.511760
 20
355.137636
 30
0.0
 10
69.544775
 20
380.739772
 30
0.0
 10
38.654978
 20
398.689452
 30
0.0
 10
0.051378
 20
405.190892
 30
0.0
 10
-0.688622
 20
349.807876
 30
0.0
 10
-1.064942
 20
300.398636
 30
0.0
 10
-1.159182
 20
254.580076
 30
0.0
 10
-1.053182
 20
209.968908
 30
0.0
 10
-0.828542
 20
164.181868
 30
0.0
 10
-0.566862
 20
114.835732
 30
0.0
 10
-0.350062
 20
59.547252
 30
0.0
 10
-0.259582
 20
-4.066796
 30
0.0
 10
17.023138
 20
-4.108396
 30
0.0
 10
34.305858
 20
-4.149996
 30
0.0
 10
51.588610
 20
-4.191596
 30
0.0
 10
68.871343
 20
-4.233196
 30
0.0
 10
86.154088
 20
-4.274796
 30
0.0
 10
103.436848
 20
-4.316396
 30
0.0
 10
120.719568
 20
-4.357996
 30
0.0
 10
138.006528
 20
-4.401276
 30
0.0
  0
ENDSEC
  0
SECTION
  2
OBJECTS
  0
DICTIONARY
  5
C
330
0
100
AcDbDictionary
  3
ACAD_GROUP
350
D
  3
ACAD_MLINESTYLE
350
17
  0
DICTIONARY
  5
D
330
C
100
AcDbDictionary
  0
DICTIONARY
  5
1A
330
C
100
AcDbDictionary
  0
DICTIONARY
  5
17
330
C
100
AcDbDictionary
  3
STANDARD
350
18
  0
DICTIONARY
  5
19
330
C
100
AcDbDictionary
  0
ENDSEC
  0
EOF
