solid OpenSCAD_Model
  facet normal -0.925275 0.30064 0.231262
    outer loop
      vertex -1.96352 1.42658 2.29236
      vertex -3 0 0
      vertex -2.42705 0 2.29236
    endloop
  endfacet
  facet normal -0.925275 -0.30064 0.231262
    outer loop
      vertex -2.42705 0 2.29236
      vertex -3 0 0
      vertex -2.42705 -1.76336 0
    endloop
  endfacet
  facet normal 0 0 -1
    outer loop
      vertex -0.927051 2.85317 0
      vertex 0 2.85317 0
      vertex -2.42705 1.76336 0
    endloop
  endfacet
  facet normal -0 0 -1
    outer loop
      vertex -2.42705 1.76336 0
      vertex 0 2.85317 0
      vertex 0 -2.85317 0
    endloop
  endfacet
  facet normal 0 0 -1
    outer loop
      vertex -2.42705 1.76336 0
      vertex 0 -2.85317 0
      vertex -0.927051 -2.85317 0
    endloop
  endfacet
  facet normal 0 0 -1
    outer loop
      vertex -2.42705 1.76336 0
      vertex -0.927051 -2.85317 0
      vertex -2.42705 -1.76336 0
    endloop
  endfacet
  facet normal 0 0 -1
    outer loop
      vertex -2.42705 1.76336 0
      vertex -2.42705 -1.76336 0
      vertex -3 0 0
    endloop
  endfacet
  facet normal -0.925275 0.30064 0.231262
    outer loop
      vertex -2.42705 1.76336 0
      vertex -3 0 0
      vertex -1.96352 1.42658 2.29236
    endloop
  endfacet
  facet normal -0.571852 0.787086 0.231262
    outer loop
      vertex -0.75 2.30826 2.29236
      vertex -2.42705 1.76336 0
      vertex -1.96352 1.42658 2.29236
    endloop
  endfacet
  facet normal -0.414188 0.570081 0.709546
    outer loop
      vertex -0.75 2.30826 2.29236
      vertex -1.96352 1.42658 2.29236
      vertex -0.286475 0.881678 3.70912
    endloop
  endfacet
  facet normal -0.414188 0.570081 0.709546
    outer loop
      vertex -0.286475 0.881678 3.70912
      vertex -1.96352 1.42658 2.29236
      vertex -0.75 0.544907 3.70912
    endloop
  endfacet
  facet normal -0.67017 0.217752 0.709546
    outer loop
      vertex -1.96352 1.42658 2.29236
      vertex -2.42705 0 2.29236
      vertex -0.75 0.544907 3.70912
    endloop
  endfacet
  facet normal -0.925275 -0.30064 0.231262
    outer loop
      vertex -2.42705 0 2.29236
      vertex -2.42705 -1.76336 0
      vertex -1.96352 -1.42658 2.29236
    endloop
  endfacet
  facet normal -0.67017 0.217752 0.709546
    outer loop
      vertex -0.75 0.544907 3.70912
      vertex -2.42705 0 2.29236
      vertex -0.927051 0 3.70912
    endloop
  endfacet
  facet normal -0.67017 -0.217752 0.709546
    outer loop
      vertex -0.927051 0 3.70912
      vertex -2.42705 0 2.29236
      vertex -1.96352 -1.42658 2.29236
    endloop
  endfacet
  facet normal -0.571851 -0.787086 0.231262
    outer loop
      vertex -1.96352 -1.42658 2.29236
      vertex -2.42705 -1.76336 0
      vertex -0.927051 -2.85317 0
    endloop
  endfacet
  facet normal -0.571851 0.787086 0.231262
    outer loop
      vertex -0.927051 2.85317 0
      vertex -2.42705 1.76336 0
      vertex -0.75 2.30826 2.29236
    endloop
  endfacet
  facet normal -0.571852 -0.787086 0.231262
    outer loop
      vertex -0.75 -2.30826 2.29236
      vertex -1.96352 -1.42658 2.29236
      vertex -0.927051 -2.85317 0
    endloop
  endfacet
  facet normal -3.27094e-17 -0.972892 0.231262
    outer loop
      vertex -0.75 -2.30826 2.29236
      vertex -0.927051 -2.85317 0
      vertex 0 -2.85317 0
    endloop
  endfacet
  facet normal 0 -0.972892 0.231262
    outer loop
      vertex 0 -2.30826 2.29236
      vertex -0.75 -2.30826 2.29236
      vertex 0 -2.85317 0
    endloop
  endfacet
  facet normal 1 0 0
    outer loop
      vertex 0 2.85317 0
      vertex 0 2.30826 2.29236
      vertex 0 0.881678 3.70912
    endloop
  endfacet
  facet normal 1 0 0
    outer loop
      vertex 0 -2.30826 2.29236
      vertex 0 2.85317 0
      vertex 0 -0.881678 3.70912
    endloop
  endfacet
  facet normal 1 0 0
    outer loop
      vertex 0 -0.881678 3.70912
      vertex 0 2.85317 0
      vertex 0 0.881678 3.70912
    endloop
  endfacet
  facet normal 1 0 0
    outer loop
      vertex 0 -2.85317 0
      vertex 0 2.85317 0
      vertex 0 -2.30826 2.29236
    endloop
  endfacet
  facet normal 0 0.972892 0.231262
    outer loop
      vertex -0.927051 2.85317 0
      vertex -0.75 2.30826 2.29236
      vertex 0 2.85317 0
    endloop
  endfacet
  facet normal 4.04311e-17 0.972892 0.231262
    outer loop
      vertex 0 2.85317 0
      vertex -0.75 2.30826 2.29236
      vertex 0 2.30826 2.29236
    endloop
  endfacet
  facet normal -0 0.704659 0.709546
    outer loop
      vertex 0 2.30826 2.29236
      vertex -0.75 2.30826 2.29236
      vertex -0.286475 0.881678 3.70912
    endloop
  endfacet
  facet normal -0 0.704659 0.709546
    outer loop
      vertex 0 0.881678 3.70912
      vertex 0 2.30826 2.29236
      vertex -0.286475 0.881678 3.70912
    endloop
  endfacet
  facet normal 0 0 1
    outer loop
      vertex -0.75 0.544907 3.70912
      vertex -0.927051 0 3.70912
      vertex -0.75 -0.544907 3.70912
    endloop
  endfacet
  facet normal -0 0 1
    outer loop
      vertex 0 -0.881678 3.70912
      vertex -0.75 0.544907 3.70912
      vertex -0.286475 -0.881678 3.70912
    endloop
  endfacet
  facet normal 0 0 1
    outer loop
      vertex -0.286475 -0.881678 3.70912
      vertex -0.75 0.544907 3.70912
      vertex -0.75 -0.544907 3.70912
    endloop
  endfacet
  facet normal 0 0 1
    outer loop
      vertex 0 0.881678 3.70912
      vertex -0.75 0.544907 3.70912
      vertex 0 -0.881678 3.70912
    endloop
  endfacet
  facet normal 0 -0 1
    outer loop
      vertex -0.286475 0.881678 3.70912
      vertex -0.75 0.544907 3.70912
      vertex 0 0.881678 3.70912
    endloop
  endfacet
  facet normal -0.67017 -0.217752 0.709546
    outer loop
      vertex -0.927051 0 3.70912
      vertex -1.96352 -1.42658 2.29236
      vertex -0.75 -0.544907 3.70912
    endloop
  endfacet
  facet normal -0.414188 -0.570081 0.709546
    outer loop
      vertex -0.75 -0.544907 3.70912
      vertex -1.96352 -1.42658 2.29236
      vertex -0.75 -2.30826 2.29236
    endloop
  endfacet
  facet normal -0.414188 -0.570081 0.709546
    outer loop
      vertex -0.75 -0.544907 3.70912
      vertex -0.75 -2.30826 2.29236
      vertex -0.286475 -0.881678 3.70912
    endloop
  endfacet
  facet normal 1.29421e-16 -0.704659 0.709546
    outer loop
      vertex -0.286475 -0.881678 3.70912
      vertex -0.75 -2.30826 2.29236
      vertex 0 -2.30826 2.29236
    endloop
  endfacet
  facet normal 0 -0.704659 0.709546
    outer loop
      vertex 0 -0.881678 3.70912
      vertex -0.286475 -0.881678 3.70912
      vertex 0 -2.30826 2.29236
    endloop
  endfacet
  facet normal -0.925275 0.30064 0.231262
    outer loop
      vertex 38.0365 1.42658 2.29236
      vertex 37 0 0
      vertex 37.5729 0 2.29236
    endloop
  endfacet
  facet normal -0.925275 -0.30064 0.231262
    outer loop
      vertex 37.5729 0 2.29236
      vertex 37 0 0
      vertex 37.5729 -1.76336 0
    endloop
  endfacet
  facet normal 0 0 -1
    outer loop
      vertex 39.0729 2.85317 0
      vertex 40 2.85317 0
      vertex 37.5729 1.76336 0
    endloop
  endfacet
  facet normal -0 0 -1
    outer loop
      vertex 37.5729 1.76336 0
      vertex 40 2.85317 0
      vertex 40 -2.85317 0
    endloop
  endfacet
  facet normal 0 0 -1
    outer loop
      vertex 37.5729 1.76336 0
      vertex 40 -2.85317 0
      vertex 39.0729 -2.85317 0
    endloop
  endfacet
  facet normal 0 0 -1
    outer loop
      vertex 37.5729 1.76336 0
      vertex 39.0729 -2.85317 0
      vertex 37.5729 -1.76336 0
    endloop
  endfacet
  facet normal 0 0 -1
    outer loop
      vertex 37.5729 1.76336 0
      vertex 37.5729 -1.76336 0
      vertex 37 0 0
    endloop
  endfacet
  facet normal -0.925275 0.30064 0.231262
    outer loop
      vertex 37.5729 1.76336 0
      vertex 37 0 0
      vertex 38.0365 1.42658 2.29236
    endloop
  endfacet
  facet normal -0.571852 0.787086 0.231262
    outer loop
      vertex 39.25 2.30826 2.29236
      vertex 37.5729 1.76336 0
      vertex 38.0365 1.42658 2.29236
    endloop
  endfacet
  facet normal -0.414188 0.570081 0.709546
    outer loop
      vertex 39.25 2.30826 2.29236
      vertex 38.0365 1.42658 2.29236
      vertex 39.7135 0.881678 3.70912
    endloop
  endfacet
  facet normal -0.414188 0.570081 0.709546
    outer loop
      vertex 39.7135 0.881678 3.70912
      vertex 38.0365 1.42658 2.29236
      vertex 39.25 0.544907 3.70912
    endloop
  endfacet
  facet normal -0.67017 0.217752 0.709546
    outer loop
      vertex 38.0365 1.42658 2.29236
      vertex 37.5729 0 2.29236
      vertex 39.25 0.544907 3.70912
    endloop
  endfacet
  facet normal -0.925275 -0.30064 0.231262
    outer loop
      vertex 37.5729 0 2.29236
      vertex 37.5729 -1.76336 0
      vertex 38.0365 -1.42658 2.29236
    endloop
  endfacet
  facet normal -0.67017 0.217752 0.709546
    outer loop
      vertex 39.25 0.544907 3.70912
      vertex 37.5729 0 2.29236
      vertex 39.0729 0 3.70912
    endloop
  endfacet
  facet normal -0.67017 -0.217752 0.709546
    outer loop
      vertex 39.0729 0 3.70912
      vertex 37.5729 0 2.29236
      vertex 38.0365 -1.42658 2.29236
    endloop
  endfacet
  facet normal -0.571851 -0.787086 0.231262
    outer loop
      vertex 38.0365 -1.42658 2.29236
      vertex 37.5729 -1.76336 0
      vertex 39.0729 -2.85317 0
    endloop
  endfacet
  facet normal -0.571851 0.787086 0.231262
    outer loop
      vertex 39.0729 2.85317 0
      vertex 37.5729 1.76336 0
      vertex 39.25 2.30826 2.29236
    endloop
  endfacet
  facet normal -0.571852 -0.787086 0.231262
    outer loop
      vertex 39.25 -2.30826 2.29236
      vertex 38.0365 -1.42658 2.29236
      vertex 39.0729 -2.85317 0
    endloop
  endfacet
  facet normal -3.27094e-17 -0.972892 0.231262
    outer loop
      vertex 39.25 -2.30826 2.29236
      vertex 39.0729 -2.85317 0
      vertex 40 -2.85317 0
    endloop
  endfacet
  facet normal 0 -0.972892 0.231262
    outer loop
      vertex 40 -2.30826 2.29236
      vertex 39.25 -2.30826 2.29236
      vertex 40 -2.85317 0
    endloop
  endfacet
  facet normal 1 0 0
    outer loop
      vertex 40 2.85317 0
      vertex 40 2.30826 2.29236
      vertex 40 0.881678 3.70912
    endloop
  endfacet
  facet normal 1 0 0
    outer loop
      vertex 40 -2.30826 2.29236
      vertex 40 2.85317 0
      vertex 40 -0.881678 3.70912
    endloop
  endfacet
  facet normal 1 0 0
    outer loop
      vertex 40 -0.881678 3.70912
      vertex 40 2.85317 0
      vertex 40 0.881678 3.70912
    endloop
  endfacet
  facet normal 1 0 0
    outer loop
      vertex 40 -2.85317 0
      vertex 40 2.85317 0
      vertex 40 -2.30826 2.29236
    endloop
  endfacet
  facet normal 0 0.972892 0.231262
    outer loop
      vertex 39.0729 2.85317 0
      vertex 39.25 2.30826 2.29236
      vertex 40 2.85317 0
    endloop
  endfacet
  facet normal 4.04311e-17 0.972892 0.231262
    outer loop
      vertex 40 2.85317 0
      vertex 39.25 2.30826 2.29236
      vertex 40 2.30826 2.29236
    endloop
  endfacet
  facet normal -0 0.704659 0.709546
    outer loop
      vertex 40 2.30826 2.29236
      vertex 39.25 2.30826 2.29236
      vertex 39.7135 0.881678 3.70912
    endloop
  endfacet
  facet normal -0 0.704659 0.709546
    outer loop
      vertex 40 0.881678 3.70912
      vertex 40 2.30826 2.29236
      vertex 39.7135 0.881678 3.70912
    endloop
  endfacet
  facet normal 0 0 1
    outer loop
      vertex 39.25 0.544907 3.70912
      vertex 39.0729 0 3.70912
      vertex 39.25 -0.544907 3.70912
    endloop
  endfacet
  facet normal -0 0 1
    outer loop
      vertex 40 -0.881678 3.70912
      vertex 39.25 0.544907 3.70912
      vertex 39.7135 -0.881678 3.70912
    endloop
  endfacet
  facet normal 0 0 1
    outer loop
      vertex 39.7135 -0.881678 3.70912
      vertex 39.25 0.544907 3.70912
      vertex 39.25 -0.544907 3.70912
    endloop
  endfacet
  facet normal 0 0 1
    outer loop
      vertex 40 0.881678 3.70912
      vertex 39.25 0.544907 3.70912
      vertex 40 -0.881678 3.70912
    endloop
  endfacet
  facet normal 0 -0 1
    outer loop
      vertex 39.7135 0.881678 3.70912
      vertex 39.25 0.544907 3.70912
      vertex 40 0.881678 3.70912
    endloop
  endfacet
  facet normal -0.67017 -0.217752 0.709546
    outer loop
      vertex 39.0729 0 3.70912
      vertex 38.0365 -1.42658 2.29236
      vertex 39.25 -0.544907 3.70912
    endloop
  endfacet
  facet normal -0.414188 -0.570081 0.709546
    outer loop
      vertex 39.25 -0.544907 3.70912
      vertex 38.0365 -1.42658 2.29236
      vertex 39.25 -2.30826 2.29236
    endloop
  endfacet
  facet normal -0.414188 -0.570081 0.709546
    outer loop
      vertex 39.25 -0.544907 3.70912
      vertex 39.25 -2.30826 2.29236
      vertex 39.7135 -0.881678 3.70912
    endloop
  endfacet
  facet normal 1.29421e-16 -0.704659 0.709546
    outer loop
      vertex 39.7135 -0.881678 3.70912
      vertex 39.25 -2.30826 2.29236
      vertex 40 -2.30826 2.29236
    endloop
  endfacet
  facet normal 0 -0.704659 0.709546
    outer loop
      vertex 40 -0.881678 3.70912
      vertex 39.7135 -0.881678 3.70912
      vertex 40 -2.30826 2.29236
    endloop
  endfacet
endsolid OpenSCAD_Model
